<svg width="1440" height="1024" viewBox="0 0 1440 1024" fill="none" xmlns="http://www.w3.org/2000/svg">
<rect width="1440" height="1024" fill="white"/>
<path d="M295.532 286.681L303.291 286.167C305.781 286.002 308.002 286.358 309.953 287.234C311.904 288.109 313.461 289.417 314.624 291.157C315.785 292.876 316.456 294.895 316.636 297.213C316.815 299.51 316.464 301.597 315.584 303.472C314.703 305.348 313.355 306.858 311.54 308.005C309.744 309.128 307.612 309.772 305.143 309.935L297.384 310.449L295.532 286.681ZM304.94 306.101C306.537 305.995 307.905 305.573 309.046 304.835C310.208 304.095 311.061 303.098 311.605 301.843C312.169 300.566 312.388 299.119 312.262 297.503C312.136 295.886 311.696 294.494 310.941 293.325C310.208 292.155 309.209 291.281 307.945 290.702C306.701 290.121 305.281 289.884 303.685 289.989L300.172 290.222L301.428 306.333L304.94 306.101ZM329.192 308.729C327.51 308.84 325.936 308.548 324.47 307.855C323.004 307.161 321.801 306.15 320.864 304.822C319.947 303.493 319.422 301.978 319.29 300.277C319.157 298.575 319.441 297.006 320.143 295.57C320.844 294.134 321.866 292.976 323.21 292.096C324.553 291.217 326.077 290.72 327.78 290.607C329.461 290.496 331.024 290.788 332.469 291.484C333.936 292.178 335.127 293.189 336.044 294.518C336.982 295.846 337.517 297.36 337.65 299.062C337.784 300.784 337.49 302.364 336.767 303.802C336.066 305.238 335.044 306.396 333.7 307.276C332.355 308.134 330.852 308.619 329.192 308.729ZM323.632 299.989C323.75 301.499 324.295 302.725 325.267 303.665C326.258 304.583 327.467 304.995 328.893 304.9C329.809 304.84 330.611 304.562 331.3 304.067C331.989 303.573 332.505 302.919 332.848 302.105C333.211 301.269 333.353 300.351 333.275 299.351C333.199 298.373 332.917 297.504 332.43 296.745C331.963 295.964 331.35 295.374 330.591 294.975C329.831 294.555 328.993 294.375 328.078 294.436C327.141 294.498 326.319 294.787 325.61 295.305C324.921 295.799 324.394 296.454 324.03 297.269C323.687 298.083 323.554 298.99 323.632 299.989ZM340.145 290.174L344.073 289.914L344.242 292.083C344.624 291.224 345.214 290.555 346.011 290.074C346.828 289.571 347.789 289.283 348.896 289.21C350.046 289.134 351.119 289.319 352.117 289.766C353.113 290.192 353.901 290.824 354.479 291.662C354.981 290.689 355.672 289.937 356.55 289.409C357.451 288.879 358.486 288.575 359.657 288.498C360.87 288.418 361.988 288.622 363.01 289.11C364.033 289.598 364.859 290.324 365.491 291.287C366.122 292.25 366.487 293.369 366.587 294.645L367.457 305.811L363.274 306.088L362.481 295.911C362.392 294.763 362.013 293.879 361.344 293.261C360.695 292.619 359.859 292.333 358.838 292.4C357.837 292.466 357.055 292.86 356.49 293.582C355.926 294.303 355.688 295.228 355.776 296.355L356.569 306.532L352.386 306.809L351.593 296.632C351.503 295.483 351.124 294.6 350.456 293.981C349.807 293.34 348.971 293.053 347.949 293.121C346.949 293.187 346.167 293.581 345.602 294.302C345.038 295.024 344.8 295.948 344.888 297.075L345.681 307.253L341.498 307.529L340.145 290.174ZM376.294 305.611C374.463 305.733 372.971 305.382 371.815 304.561C370.681 303.738 370.055 302.561 369.935 301.03C369.821 299.562 370.227 298.317 371.153 297.293C372.079 296.27 373.53 295.533 375.506 295.081L380.614 293.909L380.569 293.335C380.509 292.569 380.162 291.962 379.528 291.512C378.915 291.061 378.13 290.867 377.172 290.93C376.278 290.99 375.499 291.287 374.834 291.823C374.19 292.336 373.738 292.996 373.48 293.804L369.935 292.371C370.339 290.976 371.191 289.819 372.488 288.899C373.786 287.98 375.308 287.462 377.053 287.347C378.458 287.254 379.724 287.437 380.851 287.897C381.998 288.334 382.907 289.012 383.577 289.929C384.267 290.824 384.659 291.867 384.752 293.058L385.652 304.607L381.692 304.869L381.548 303.019C380.302 304.598 378.551 305.462 376.294 305.611ZM374.265 300.583C374.312 301.178 374.573 301.642 375.048 301.974C375.521 302.285 376.109 302.417 376.812 302.37C378.11 302.284 379.143 301.81 379.91 300.947C380.676 300.062 381.011 299.014 380.917 297.802L380.862 297.1L376.545 298.123C375.728 298.348 375.132 298.665 374.758 299.075C374.381 299.463 374.217 299.966 374.265 300.583ZM388.165 286.996L392.348 286.719L393.701 304.075L389.518 304.351L388.165 286.996ZM387.473 282.232C387.413 281.466 387.58 280.856 387.972 280.403C388.365 279.949 388.934 279.698 389.679 279.649C390.445 279.598 391.058 279.771 391.517 280.168C391.976 280.565 392.235 281.147 392.295 281.913C392.353 282.657 392.185 283.256 391.793 283.71C391.421 284.162 390.842 284.414 390.054 284.466C389.309 284.515 388.707 284.341 388.248 283.944C387.79 283.547 387.531 282.976 387.473 282.232ZM396.21 286.464L400.138 286.204L400.304 288.341C400.688 287.503 401.289 286.844 402.108 286.362C402.946 285.858 403.918 285.569 405.025 285.495C406.281 285.412 407.431 285.614 408.474 286.101C409.518 286.588 410.355 287.313 410.987 288.276C411.618 289.239 411.983 290.358 412.083 291.634L412.953 302.801L408.77 303.077L407.977 292.9C407.889 291.773 407.489 290.891 406.776 290.254C406.084 289.616 405.217 289.331 404.174 289.4C403.131 289.469 402.306 289.866 401.699 290.59C401.113 291.313 400.865 292.238 400.952 293.365L401.746 303.542L397.563 303.819L396.21 286.464ZM304.393 324.175L307.778 323.951L320.301 338.451L319.113 323.201L323.455 322.913L325.308 346.681L321.891 346.907L309.377 332.119L310.588 347.655L306.245 347.943L304.393 324.175ZM334.859 346.434C333.029 346.555 331.536 346.205 330.38 345.384C329.246 344.561 328.62 343.384 328.5 341.852C328.386 340.385 328.792 339.139 329.718 338.116C330.644 337.093 332.095 336.355 334.071 335.904L339.179 334.732L339.134 334.158C339.074 333.392 338.727 332.784 338.093 332.335C337.48 331.883 336.695 331.69 335.737 331.753C334.843 331.812 334.064 332.11 333.4 332.645C332.755 333.158 332.304 333.819 332.046 334.627L328.5 333.194C328.905 331.799 329.756 330.642 331.054 329.722C332.351 328.802 333.873 328.285 335.618 328.169C337.023 328.076 338.289 328.26 339.416 328.72C340.563 329.157 341.472 329.834 342.142 330.752C342.833 331.647 343.224 332.69 343.317 333.881L344.217 345.43L340.258 345.692L340.113 343.842C338.867 345.421 337.116 346.285 334.859 346.434ZM332.831 341.405C332.877 342.001 333.138 342.465 333.613 342.797C334.087 343.107 334.675 343.239 335.377 343.193C336.675 343.107 337.708 342.632 338.476 341.769C339.241 340.885 339.577 339.837 339.482 338.624L339.427 337.922L335.11 338.946C334.293 339.171 333.697 339.488 333.323 339.898C332.947 340.286 332.783 340.789 332.831 341.405ZM346.73 327.819L350.658 327.559L350.827 329.728C351.209 328.869 351.799 328.199 352.596 327.719C353.413 327.216 354.374 326.928 355.481 326.855C356.631 326.779 357.704 326.964 358.702 327.411C359.698 327.837 360.486 328.469 361.064 329.307C361.566 328.333 362.257 327.582 363.135 327.054C364.036 326.524 365.071 326.22 366.242 326.143C367.455 326.062 368.573 326.266 369.595 326.754C370.618 327.243 371.444 327.968 372.076 328.931C372.707 329.894 373.073 331.014 373.172 332.29L374.042 343.456L369.859 343.733L369.066 333.556C368.977 332.407 368.598 331.524 367.929 330.905C367.28 330.264 366.444 329.977 365.423 330.045C364.422 330.111 363.64 330.505 363.076 331.226C362.511 331.948 362.273 332.872 362.361 334L363.154 344.177L358.971 344.453L358.178 334.276C358.089 333.128 357.709 332.244 357.041 331.626C356.392 330.985 355.556 330.698 354.534 330.766C353.534 330.832 352.752 331.226 352.187 331.947C351.623 332.668 351.385 333.593 351.473 334.72L352.266 344.897L348.083 345.174L346.73 327.819ZM385.849 343.06C384.103 343.175 382.518 342.874 381.092 342.156C379.688 341.436 378.549 340.411 377.675 339.079C376.823 337.746 376.331 336.239 376.2 334.559C376.067 332.857 376.32 331.301 376.959 329.891C377.618 328.458 378.566 327.305 379.803 326.432C381.061 325.557 382.499 325.067 384.117 324.96C385.863 324.844 387.404 325.127 388.741 325.808C390.076 326.468 391.124 327.425 391.885 328.679C392.667 329.931 393.119 331.333 393.24 332.886C393.296 333.609 393.268 334.199 393.153 334.655L380.637 335.484C380.864 336.751 381.433 337.74 382.344 338.449C383.255 339.159 384.339 339.472 385.595 339.389C386.531 339.327 387.315 339.082 387.945 338.656C388.594 338.207 389.094 337.618 389.444 336.889L392.958 338.324C392.525 339.635 391.669 340.729 390.389 341.605C389.108 342.459 387.594 342.944 385.849 343.06ZM388.658 331.746C388.469 330.69 387.986 329.856 387.211 329.244C386.435 328.612 385.493 328.332 384.386 328.405C383.321 328.476 382.442 328.855 381.746 329.542C381.049 330.208 380.629 331.123 380.484 332.287L388.658 331.746ZM403.673 341.848C401.928 341.963 400.352 341.651 398.946 340.91C397.562 340.168 396.536 339.092 395.87 337.682L398.843 335.882C399.384 336.787 400.059 337.48 400.867 337.961C401.694 338.419 402.576 338.618 403.513 338.556C404.322 338.502 404.937 338.301 405.359 337.952C405.801 337.581 406 337.108 405.955 336.534C405.917 336.045 405.694 335.653 405.286 335.36C404.876 335.045 404.358 334.855 403.733 334.789L400.854 334.499C399.355 334.213 398.166 333.64 397.285 332.779C396.425 331.895 395.946 330.826 395.848 329.571C395.767 328.529 395.971 327.585 396.462 326.74C396.951 325.874 397.667 325.185 398.612 324.674C399.577 324.161 400.688 323.863 401.944 323.78C403.541 323.674 404.975 323.964 406.248 324.649C407.52 325.314 408.484 326.297 409.142 327.601L406.169 329.401C405.771 328.679 405.203 328.118 404.465 327.718C403.728 327.318 402.934 327.146 402.082 327.202C401.38 327.248 400.828 327.445 400.427 327.793C400.048 328.138 399.878 328.566 399.918 329.077C399.991 330.013 400.742 330.594 402.172 330.82L404.989 331.146C406.49 331.453 407.68 332.037 408.56 332.898C409.44 333.759 409.929 334.817 410.027 336.072C410.108 337.114 409.893 338.058 409.381 338.905C408.891 339.75 408.152 340.429 407.165 340.943C406.178 341.458 405.014 341.759 403.673 341.848Z" fill="#1F3247"/>
<path d="M974.765 612.859L978.925 612.914L986.694 623.769L994.604 613.12L998.763 613.175L998.394 637.012L994.011 636.954L994.261 620.764L986.75 630.458L986.238 630.451L979.004 620.243L978.748 636.754L974.396 636.696L974.765 612.859ZM1010.85 637.56C1009.1 637.537 1007.55 637.111 1006.2 636.282C1004.87 635.454 1003.83 634.342 1003.08 632.945C1002.36 631.549 1002.01 630.008 1002.04 628.323C1002.06 626.617 1002.46 625.086 1003.23 623.73C1004.02 622.354 1005.07 621.28 1006.38 620.507C1007.72 619.736 1009.19 619.36 1010.82 619.382C1012.56 619.405 1014.07 619.809 1015.34 620.593C1016.61 621.357 1017.56 622.393 1018.21 623.703C1018.87 625.013 1019.19 626.447 1019.16 628.004C1019.15 628.729 1019.07 629.315 1018.91 629.761L1006.37 629.596C1006.48 630.878 1006.95 631.908 1007.79 632.687C1008.63 633.466 1009.68 633.864 1010.94 633.881C1011.88 633.893 1012.68 633.711 1013.35 633.336C1014.04 632.94 1014.59 632.392 1015.01 631.694L1018.37 633.402C1017.82 634.675 1016.87 635.697 1015.51 636.469C1014.16 637.219 1012.6 637.583 1010.85 637.56ZM1014.71 626.505C1014.62 625.437 1014.21 624.568 1013.5 623.897C1012.78 623.205 1011.87 622.852 1010.76 622.837C1009.7 622.823 1008.78 623.131 1008.03 623.761C1007.27 624.37 1006.77 625.249 1006.51 626.398L1014.71 626.505ZM1030.13 637.621C1028.17 637.595 1026.65 637.042 1025.58 635.961C1024.53 634.859 1024.02 633.327 1024.05 631.365L1024.17 623.686L1021.16 623.646L1021.22 619.903L1021.54 619.907C1022.39 619.918 1023.06 619.703 1023.53 619.261C1024.01 618.819 1024.25 618.172 1024.27 617.318L1024.29 615.975L1028.48 616.03L1028.42 619.997L1032.42 620.05L1032.36 623.793L1028.36 623.741L1028.24 631.196C1028.22 633.009 1029.18 633.928 1031.15 633.954C1031.49 633.959 1031.86 633.932 1032.27 633.873L1032.21 637.489C1031.53 637.586 1030.83 637.63 1030.13 637.621ZM1040.59 637.951C1038.76 637.927 1037.31 637.46 1036.23 636.549C1035.18 635.639 1034.66 634.417 1034.69 632.881C1034.71 631.409 1035.23 630.2 1036.25 629.253C1037.27 628.306 1038.78 627.686 1040.79 627.392L1045.99 626.629L1045.99 626.053C1046.01 625.285 1045.72 624.652 1045.13 624.153C1044.56 623.655 1043.8 623.4 1042.84 623.387C1041.94 623.375 1041.14 623.61 1040.42 624.091C1039.73 624.552 1039.22 625.174 1038.89 625.959L1035.49 624.251C1036.03 622.892 1036.98 621.806 1038.36 620.992C1039.74 620.178 1041.3 619.783 1043.05 619.806C1044.46 619.824 1045.7 620.107 1046.78 620.655C1047.88 621.181 1048.73 621.928 1049.31 622.896C1049.91 623.843 1050.2 624.913 1050.19 626.108L1050.01 637.691L1046.04 637.638L1046.07 635.783C1044.68 637.258 1042.86 637.981 1040.59 637.951ZM1039.04 632.778C1039.03 633.375 1039.25 633.858 1039.69 634.227C1040.13 634.574 1040.71 634.752 1041.41 634.761C1042.71 634.778 1043.79 634.387 1044.63 633.587C1045.47 632.767 1045.91 631.748 1045.93 630.532L1045.94 629.828L1041.54 630.507C1040.71 630.666 1040.08 630.935 1039.67 631.314C1039.26 631.671 1039.05 632.159 1039.04 632.778ZM1052.24 620.31L1056.81 620.371L1060.77 631.783L1065.07 620.479L1069.64 620.539L1062.53 637.855L1058.82 637.806L1052.24 620.31ZM1079.63 638.464C1077.88 638.441 1076.33 638.015 1074.98 637.187C1073.64 636.359 1072.61 635.246 1071.86 633.85C1071.13 632.453 1070.78 630.912 1070.81 629.227C1070.84 627.521 1071.23 625.99 1072 624.635C1072.79 623.258 1073.84 622.184 1075.16 621.412C1076.49 620.64 1077.97 620.265 1079.59 620.286C1081.34 620.309 1082.85 620.713 1084.12 621.498C1085.38 622.261 1086.34 623.298 1086.98 624.608C1087.64 625.918 1087.96 627.351 1087.94 628.909C1087.93 629.634 1087.84 630.219 1087.69 630.665L1075.14 630.5C1075.25 631.782 1075.73 632.812 1076.57 633.591C1077.41 634.371 1078.46 634.768 1079.72 634.785C1080.66 634.797 1081.46 634.616 1082.13 634.241C1082.82 633.844 1083.37 633.297 1083.78 632.598L1087.15 634.307C1086.6 635.579 1085.64 636.602 1084.29 637.373C1082.93 638.123 1081.38 638.487 1079.63 638.464ZM1083.48 627.41C1083.39 626.342 1082.99 625.472 1082.27 624.802C1081.56 624.11 1080.65 623.756 1079.54 623.742C1078.47 623.728 1077.56 624.036 1076.8 624.666C1076.05 625.275 1075.54 626.153 1075.29 627.302L1083.48 627.41ZM1091.24 620.823L1095.18 620.875L1095.14 623.307C1095.58 622.374 1096.2 621.71 1096.99 621.315C1097.79 620.92 1098.75 620.73 1099.88 620.745L1100.91 620.758L1100.85 624.47L1099.35 624.45C1098.15 624.434 1097.19 624.795 1096.45 625.532C1095.71 626.269 1095.33 627.288 1095.31 628.589L1095.16 638.284L1090.97 638.229L1091.24 620.823ZM1109.46 638.824C1107.71 638.801 1106.17 638.365 1104.84 637.516C1103.53 636.666 1102.61 635.513 1102.08 634.055L1105.21 632.496C1105.66 633.441 1106.27 634.185 1107.03 634.728C1107.81 635.25 1108.67 635.518 1109.61 635.53C1110.42 635.541 1111.05 635.389 1111.5 635.075C1111.98 634.74 1112.22 634.284 1112.23 633.708C1112.24 633.218 1112.05 632.81 1111.67 632.485C1111.29 632.139 1110.8 631.908 1110.18 631.793L1107.34 631.276C1105.87 630.873 1104.74 630.207 1103.94 629.279C1103.17 628.33 1102.79 627.226 1102.81 625.968C1102.83 624.923 1103.12 623.998 1103.69 623.195C1104.25 622.371 1105.03 621.741 1106.02 621.306C1107.03 620.871 1108.16 620.662 1109.42 620.678C1111.02 620.699 1112.42 621.102 1113.63 621.886C1114.83 622.648 1115.7 623.705 1116.24 625.056L1113.11 626.615C1112.78 625.864 1112.26 625.26 1111.57 624.803C1110.87 624.346 1110.09 624.111 1109.24 624.1C1108.54 624.091 1107.97 624.244 1107.54 624.558C1107.13 624.873 1106.92 625.286 1106.91 625.798C1106.9 626.736 1107.59 627.375 1108.99 627.713L1111.77 628.262C1113.23 628.686 1114.37 629.363 1115.16 630.291C1115.96 631.218 1116.35 632.312 1116.33 633.57C1116.31 634.615 1116.01 635.54 1115.42 636.343C1114.85 637.146 1114.05 637.765 1113.02 638.199C1111.99 638.634 1110.81 638.842 1109.46 638.824ZM1127.62 639.095C1125.88 639.072 1124.32 638.646 1122.97 637.818C1121.64 636.99 1120.6 635.877 1119.86 634.481C1119.13 633.084 1118.78 631.544 1118.81 629.858C1118.83 628.152 1119.23 626.621 1120 625.266C1120.79 623.889 1121.84 622.815 1123.15 622.043C1124.49 621.271 1125.97 620.896 1127.59 620.917C1129.34 620.94 1130.84 621.344 1132.11 622.129C1133.38 622.892 1134.34 623.929 1134.98 625.239C1135.64 626.549 1135.96 627.983 1135.93 629.54C1135.92 630.265 1135.84 630.851 1135.68 631.296L1123.14 631.132C1123.25 632.413 1123.72 633.443 1124.56 634.223C1125.41 635.002 1126.46 635.4 1127.71 635.416C1128.65 635.428 1129.46 635.247 1130.12 634.872C1130.81 634.475 1131.36 633.928 1131.78 633.229L1135.15 634.938C1134.59 636.211 1133.64 637.233 1132.28 638.004C1130.93 638.755 1129.37 639.118 1127.62 639.095ZM1131.48 628.041C1131.39 626.973 1130.98 626.104 1130.27 625.433C1129.55 624.741 1128.64 624.387 1127.53 624.373C1126.47 624.359 1125.55 624.667 1124.8 625.297C1124.04 625.906 1123.54 626.784 1123.29 627.933L1131.48 628.041Z" fill="#1F3247"/>
<path d="M443.011 668.286L446.394 668.534L456.405 684.606L457.724 669.367L462.064 669.686L460.008 693.437L456.593 693.186L446.64 676.83L445.296 692.356L440.955 692.037L443.011 668.286ZM466.666 670.024L482.527 671.19L482.196 675.016L470.675 674.169L470.107 680.737L480.192 681.478L479.861 685.304L469.776 684.562L468.951 694.095L464.61 693.776L466.666 670.024ZM489.247 675.534L483.088 675.082L483.419 671.256L500.014 672.476L499.683 676.301L493.619 675.856L491.895 695.781L487.523 695.46L489.247 675.534ZM504.835 697.085C503.09 696.957 501.584 696.429 500.315 695.502C499.068 694.576 498.23 693.37 497.802 691.884L501.035 690.518C501.423 691.487 501.976 692.266 502.696 692.853C503.439 693.421 504.279 693.74 505.215 693.809C506.023 693.868 506.665 693.755 507.139 693.469C507.637 693.163 507.91 692.723 507.96 692.149C508.002 691.661 507.846 691.243 507.49 690.896C507.137 690.528 506.656 690.268 506.048 690.116L503.249 689.429C501.814 688.939 500.732 688.207 500.003 687.233C499.297 686.24 498.998 685.117 499.106 683.863C499.197 682.821 499.553 681.917 500.176 681.15C500.801 680.362 501.622 679.781 502.64 679.406C503.678 679.033 504.825 678.893 506.08 678.985C507.676 679.103 509.047 679.588 510.194 680.443C511.342 681.276 512.135 682.382 512.572 683.762L509.338 685.128C509.062 684.359 508.593 683.726 507.929 683.228C507.266 682.73 506.509 682.45 505.657 682.387C504.955 682.336 504.378 682.454 503.925 682.741C503.493 683.03 503.255 683.43 503.211 683.94C503.13 684.875 503.778 685.554 505.154 685.976L507.887 686.69C509.32 687.202 510.401 687.944 511.13 688.917C511.86 689.891 512.17 691.004 512.061 692.258C511.971 693.3 511.604 694.203 510.96 694.969C510.337 695.736 509.495 696.305 508.435 696.676C507.375 697.047 506.175 697.184 504.835 697.085Z" fill="#1F3247"/>
<path d="M980.521 283.471L990.548 284.131C992.889 284.285 994.685 285.002 995.933 286.281C997.182 287.56 997.726 289.242 997.564 291.327C997.433 293.028 996.684 294.411 995.317 295.476C997.138 296.836 997.953 298.738 997.764 301.184C997.587 303.46 996.693 305.197 995.081 306.395C993.492 307.573 991.367 308.075 988.706 307.9L978.68 307.24L980.521 283.471ZM989.45 304.101C990.557 304.174 991.475 303.924 992.204 303.352C992.935 302.759 993.34 301.941 993.421 300.899C993.502 299.857 993.226 298.994 992.594 298.311C991.984 297.63 991.115 297.252 989.986 297.177L983.856 296.774L983.319 303.697L989.45 304.101ZM990.057 293.366C990.951 293.425 991.684 293.217 992.256 292.741C992.829 292.244 993.148 291.581 993.212 290.752C993.276 289.922 993.061 289.245 992.567 288.721C992.073 288.197 991.379 287.906 990.485 287.847L984.577 287.458L984.15 292.978L990.057 293.366ZM1002.28 284.518L1006.46 284.793L1004.59 308.945L1000.41 308.67L1002.28 284.518ZM1016.92 310.14C1015.23 310.03 1013.72 309.535 1012.38 308.655C1011.03 307.776 1010 306.618 1009.28 305.181C1008.57 303.745 1008.29 302.176 1008.42 300.475C1008.55 298.773 1009.08 297.258 1009.99 295.928C1010.91 294.599 1012.1 293.587 1013.57 292.892C1015.03 292.198 1016.62 291.907 1018.32 292.019C1020 292.129 1021.5 292.624 1022.83 293.502C1024.17 294.381 1025.19 295.539 1025.89 296.974C1026.62 298.411 1026.91 299.981 1026.78 301.682C1026.65 303.405 1026.11 304.931 1025.18 306.258C1024.26 307.588 1023.07 308.6 1021.6 309.294C1020.14 309.968 1018.58 310.25 1016.92 310.14ZM1012.76 300.76C1012.65 302.27 1013 303.555 1013.81 304.613C1014.65 305.652 1015.79 306.218 1017.21 306.312C1018.13 306.372 1018.96 306.203 1019.72 305.804C1020.48 305.405 1021.09 304.825 1021.56 304.064C1022.05 303.284 1022.33 302.394 1022.41 301.395C1022.48 300.416 1022.34 299.519 1021.97 298.705C1021.63 297.87 1021.12 297.205 1020.43 296.711C1019.74 296.195 1018.94 295.907 1018.02 295.847C1017.09 295.786 1016.23 295.964 1015.45 296.383C1014.69 296.782 1014.06 297.361 1013.58 298.12C1013.11 298.881 1012.84 299.761 1012.76 300.76ZM1037.62 311.502C1035.91 311.39 1034.39 310.894 1033.05 310.015C1031.73 309.116 1030.73 307.949 1030.04 306.515C1029.36 305.08 1029.09 303.512 1029.22 301.811C1029.35 300.109 1029.87 298.604 1030.76 297.294C1031.65 295.964 1032.82 294.95 1034.27 294.254C1035.71 293.558 1037.3 293.267 1039.02 293.381C1040.87 293.502 1042.49 294.089 1043.86 295.142C1045.23 296.173 1046.13 297.472 1046.54 299.038L1042.78 300.394C1042.51 299.478 1042.01 298.74 1041.28 298.179C1040.56 297.597 1039.7 297.273 1038.72 297.209C1037.83 297.15 1037 297.32 1036.25 297.719C1035.49 298.118 1034.86 298.708 1034.38 299.488C1033.91 300.249 1033.64 301.129 1033.56 302.128C1033.48 303.128 1033.62 304.045 1033.96 304.88C1034.32 305.695 1034.85 306.35 1035.54 306.844C1036.23 307.338 1037.02 307.615 1037.91 307.674C1038.91 307.74 1039.81 307.542 1040.59 307.08C1041.4 306.599 1042.01 305.912 1042.42 305.02L1045.93 306.918C1045.3 308.395 1044.22 309.564 1042.68 310.424C1041.16 311.265 1039.47 311.624 1037.62 311.502ZM1050.58 287.695L1054.76 287.971L1053.7 301.658L1060.81 295.199L1066.02 295.541L1059.06 302.106L1064.8 312.906L1060.01 312.591L1055.72 304.548L1053.3 306.826L1052.89 312.122L1048.71 311.847L1050.58 287.695ZM1075.16 313.972C1073.46 313.86 1071.93 313.364 1070.59 312.485C1069.27 311.586 1068.27 310.419 1067.59 308.984C1066.91 307.55 1066.63 305.982 1066.77 304.281C1066.9 302.579 1067.41 301.074 1068.3 299.764C1069.2 298.433 1070.37 297.42 1071.81 296.724C1073.26 296.028 1074.84 295.737 1076.57 295.85C1078.42 295.972 1080.03 296.559 1081.4 297.612C1082.78 298.643 1083.67 299.941 1084.09 301.508L1080.32 302.864C1080.05 301.948 1079.55 301.21 1078.83 300.649C1078.1 300.067 1077.25 299.743 1076.27 299.679C1075.37 299.62 1074.55 299.79 1073.79 300.189C1073.03 300.588 1072.41 301.178 1071.92 301.958C1071.45 302.718 1071.18 303.599 1071.11 304.598C1071.03 305.598 1071.16 306.515 1071.5 307.35C1071.87 308.165 1072.39 308.82 1073.08 309.314C1073.77 309.808 1074.56 310.085 1075.46 310.143C1076.46 310.209 1077.35 310.011 1078.14 309.55C1078.94 309.069 1079.55 308.382 1079.96 307.49L1083.48 309.388C1082.85 310.865 1081.76 312.033 1080.22 312.894C1078.7 313.734 1077.01 314.094 1075.16 313.972ZM1088.12 290.165L1092.31 290.44L1091.65 298.959C1092.19 298.31 1092.88 297.832 1093.71 297.524C1094.55 297.215 1095.47 297.094 1096.47 297.16C1097.73 297.242 1098.83 297.593 1099.79 298.212C1100.75 298.831 1101.47 299.658 1101.94 300.694C1102.42 301.73 1102.61 302.887 1102.51 304.163L1101.64 315.329L1097.46 315.054L1098.25 304.877C1098.34 303.749 1098.08 302.824 1097.47 302.1C1096.88 301.377 1096.07 300.981 1095.02 300.913C1094 300.845 1093.14 301.13 1092.42 301.768C1091.71 302.405 1091.31 303.287 1091.22 304.414L1090.43 314.592L1086.25 314.317L1088.12 290.165ZM1110.42 316.291C1108.59 316.171 1107.16 315.628 1106.15 314.664C1105.15 313.7 1104.71 312.453 1104.83 310.921C1104.95 309.454 1105.54 308.274 1106.62 307.383C1107.69 306.492 1109.24 305.952 1111.27 305.765L1116.5 305.276L1116.55 304.702C1116.61 303.936 1116.36 303.289 1115.8 302.76C1115.26 302.233 1114.52 301.938 1113.56 301.875C1112.66 301.816 1111.85 302.009 1111.11 302.452C1110.39 302.875 1109.84 303.469 1109.46 304.235L1106.17 302.351C1106.79 301.024 1107.81 299.99 1109.24 299.25C1110.66 298.51 1112.25 298.198 1113.99 298.313C1115.4 298.405 1116.62 298.753 1117.67 299.356C1118.74 299.939 1119.53 300.729 1120.05 301.725C1120.6 302.702 1120.82 303.786 1120.73 304.977L1119.84 316.526L1115.88 316.266L1116.02 314.415C1114.54 315.814 1112.68 316.44 1110.42 316.291ZM1109.19 311.048C1109.14 311.643 1109.33 312.136 1109.75 312.527C1110.17 312.897 1110.73 313.105 1111.43 313.151C1112.73 313.237 1113.83 312.903 1114.72 312.149C1115.61 311.374 1116.11 310.38 1116.2 309.168L1116.26 308.466L1111.82 308.912C1110.98 309.028 1110.34 309.264 1109.91 309.62C1109.48 309.955 1109.24 310.431 1109.19 311.048ZM1125.05 299.424L1129.23 299.7L1127.89 317.056L1123.7 316.78L1125.05 299.424ZM1125.1 294.618C1125.16 293.852 1125.42 293.27 1125.88 292.873C1126.33 292.476 1126.94 292.302 1127.68 292.351C1128.45 292.401 1129.03 292.653 1129.42 293.106C1129.81 293.56 1129.98 294.169 1129.92 294.935C1129.86 295.679 1129.6 296.25 1129.15 296.648C1128.71 297.046 1128.1 297.22 1127.31 297.168C1126.56 297.119 1125.99 296.868 1125.6 296.414C1125.21 295.961 1125.04 295.362 1125.1 294.618ZM1133.09 299.954L1137.02 300.212L1136.85 302.35C1137.36 301.571 1138.06 300.997 1138.94 300.627C1139.85 300.238 1140.86 300.08 1141.97 300.153C1143.22 300.235 1144.33 300.586 1145.29 301.205C1146.24 301.824 1146.96 302.651 1147.44 303.687C1147.91 304.723 1148.1 305.879 1148 307.156L1147.14 318.322L1142.96 318.047L1143.74 307.869C1143.83 306.742 1143.57 305.816 1142.96 305.092C1142.38 304.37 1141.56 303.974 1140.52 303.906C1139.48 303.837 1138.6 304.121 1137.89 304.758C1137.2 305.397 1136.81 306.28 1136.72 307.407L1135.93 317.585L1131.75 317.31L1133.09 299.954ZM995.828 322.558L1003.59 323.068C1006.08 323.232 1008.22 323.876 1010.02 324.999C1011.81 326.121 1013.15 327.62 1014.03 329.496C1014.92 331.349 1015.27 333.436 1015.09 335.754C1014.91 338.051 1014.24 340.07 1013.08 341.811C1011.92 343.551 1010.35 344.87 1008.38 345.766C1006.43 346.643 1004.22 347 1001.75 346.837L993.987 346.327L995.828 322.558ZM1002.14 343.015C1003.74 343.12 1005.16 342.882 1006.4 342.301C1007.66 341.722 1008.66 340.847 1009.39 339.676C1010.15 338.486 1010.59 337.083 1010.71 335.466C1010.84 333.85 1010.62 332.414 1010.05 331.158C1009.51 329.903 1008.66 328.907 1007.49 328.167C1006.35 327.43 1004.98 327.008 1003.39 326.903L999.874 326.672L998.626 342.784L1002.14 343.015ZM1025.74 348.8C1024.05 348.69 1022.54 348.195 1021.2 347.315C1019.85 346.436 1018.82 345.277 1018.1 343.84C1017.4 342.405 1017.11 340.836 1017.24 339.134C1017.37 337.433 1017.9 335.917 1018.81 334.588C1019.73 333.259 1020.92 332.247 1022.39 331.552C1023.85 330.858 1025.44 330.566 1027.14 330.678C1028.82 330.789 1030.32 331.283 1031.65 332.161C1032.99 333.041 1034.01 334.198 1034.72 335.634C1035.44 337.071 1035.73 338.641 1035.6 340.342C1035.47 342.065 1034.93 343.59 1034 344.918C1033.08 346.248 1031.89 347.26 1030.42 347.954C1028.96 348.627 1027.4 348.909 1025.74 348.8ZM1021.58 339.42C1021.47 340.93 1021.82 342.215 1022.63 343.273C1023.47 344.312 1024.61 344.878 1026.03 344.972C1026.95 345.032 1027.78 344.862 1028.54 344.463C1029.3 344.064 1029.91 343.485 1030.38 342.724C1030.87 341.944 1031.15 341.054 1031.23 340.054C1031.3 339.076 1031.16 338.179 1030.79 337.364C1030.45 336.529 1029.94 335.865 1029.25 335.371C1028.56 334.855 1027.76 334.567 1026.84 334.507C1025.91 334.445 1025.05 334.624 1024.27 335.043C1023.51 335.442 1022.89 336.021 1022.4 336.78C1021.93 337.54 1021.66 338.42 1021.58 339.42ZM1039.45 331.873L1043.37 332.131L1043.21 334.301C1043.72 333.501 1044.4 332.915 1045.27 332.544C1046.15 332.154 1047.15 331.995 1048.26 332.068C1049.41 332.143 1050.44 332.468 1051.36 333.041C1052.28 333.594 1052.96 334.322 1053.4 335.228C1054.05 334.33 1054.85 333.677 1055.8 333.269C1056.78 332.863 1057.85 332.699 1059.02 332.776C1060.23 332.855 1061.31 333.204 1062.24 333.821C1063.18 334.439 1063.89 335.266 1064.36 336.302C1064.84 337.338 1065.03 338.494 1064.93 339.77L1064.06 350.937L1059.88 350.661L1060.67 340.484C1060.76 339.335 1060.52 338.411 1059.95 337.711C1059.41 336.991 1058.63 336.598 1057.6 336.531C1056.6 336.465 1055.77 336.752 1055.1 337.392C1054.43 338.032 1054.05 338.916 1053.96 340.043L1053.17 350.22L1048.99 349.945L1049.78 339.768C1049.87 338.619 1049.63 337.695 1049.06 336.995C1048.52 336.275 1047.74 335.881 1046.72 335.814C1045.71 335.748 1044.88 336.036 1044.21 336.676C1043.54 337.316 1043.16 338.199 1043.07 339.327L1042.29 349.504L1038.1 349.229L1039.45 331.873ZM1072.84 351.899C1071.01 351.778 1069.59 351.236 1068.57 350.271C1067.57 349.308 1067.14 348.06 1067.25 346.529C1067.37 345.061 1067.96 343.882 1069.04 342.991C1070.11 342.099 1071.66 341.56 1073.69 341.372L1078.92 340.883L1078.97 340.309C1079.03 339.543 1078.78 338.896 1078.22 338.368C1077.68 337.841 1076.94 337.546 1075.98 337.483C1075.08 337.424 1074.27 337.616 1073.53 338.059C1072.81 338.482 1072.26 339.077 1071.88 339.843L1068.59 337.959C1069.21 336.631 1070.23 335.597 1071.66 334.858C1073.08 334.118 1074.67 333.805 1076.41 333.92C1077.82 334.012 1079.04 334.36 1080.09 334.963C1081.16 335.547 1081.95 336.336 1082.47 337.333C1083.02 338.309 1083.24 339.393 1083.15 340.584L1082.26 352.134L1078.3 351.873L1078.44 350.023C1076.96 351.422 1075.1 352.047 1072.84 351.899ZM1071.61 346.655C1071.56 347.251 1071.75 347.744 1072.17 348.135C1072.59 348.505 1073.15 348.713 1073.85 348.759C1075.15 348.844 1076.25 348.51 1077.14 347.757C1078.03 346.982 1078.53 345.988 1078.62 344.776L1078.68 344.074L1074.25 344.52C1073.4 344.635 1072.76 344.871 1072.33 345.227C1071.9 345.562 1071.66 346.038 1071.61 346.655ZM1087.47 335.032L1091.65 335.307L1090.31 352.663L1086.12 352.388L1087.47 335.032ZM1087.52 330.225C1087.58 329.46 1087.84 328.878 1088.3 328.481C1088.75 328.083 1089.36 327.909 1090.1 327.958C1090.87 328.008 1091.45 328.26 1091.84 328.714C1092.23 329.167 1092.4 329.777 1092.34 330.542C1092.28 331.287 1092.02 331.858 1091.57 332.255C1091.13 332.654 1090.52 332.827 1089.73 332.776C1088.98 332.727 1088.41 332.475 1088.02 332.022C1087.63 331.569 1087.46 330.97 1087.52 330.225ZM1095.51 335.561L1099.44 335.819L1099.27 337.957C1099.78 337.178 1100.48 336.604 1101.37 336.235C1102.27 335.846 1103.28 335.687 1104.39 335.76C1105.64 335.843 1106.75 336.193 1107.71 336.812C1108.67 337.431 1109.38 338.259 1109.86 339.295C1110.33 340.331 1110.52 341.487 1110.42 342.763L1109.56 353.93L1105.38 353.654L1106.16 343.477C1106.25 342.35 1105.99 341.424 1105.38 340.7C1104.8 339.977 1103.98 339.582 1102.94 339.513C1101.9 339.444 1101.02 339.729 1100.31 340.366C1099.62 341.005 1099.23 341.888 1099.14 343.015L1098.35 353.192L1094.17 352.917L1095.51 335.561ZM1119.58 354.942C1117.84 354.827 1116.33 354.311 1115.05 353.393C1113.79 352.477 1112.95 351.277 1112.5 349.794L1115.72 348.403C1116.12 349.369 1116.68 350.144 1117.41 350.726C1118.15 351.288 1119 351.6 1119.93 351.662C1120.74 351.715 1121.38 351.597 1121.85 351.307C1122.35 350.998 1122.62 350.556 1122.66 349.982C1122.7 349.492 1122.54 349.076 1122.18 348.731C1121.83 348.366 1121.34 348.11 1120.73 347.963L1117.93 347.297C1116.49 346.818 1115.4 346.094 1114.66 345.126C1113.95 344.139 1113.64 343.017 1113.74 341.762C1113.82 340.72 1114.17 339.813 1114.78 339.041C1115.4 338.248 1116.21 337.661 1117.23 337.278C1118.26 336.897 1119.41 336.748 1120.67 336.831C1122.26 336.936 1123.64 337.411 1124.79 338.257C1125.95 339.081 1126.75 340.181 1127.2 341.558L1123.98 342.949C1123.7 342.182 1123.22 341.553 1122.55 341.06C1121.88 340.567 1121.12 340.292 1120.27 340.236C1119.57 340.19 1118.99 340.313 1118.54 340.604C1118.11 340.896 1117.88 341.297 1117.84 341.808C1117.77 342.744 1118.42 343.417 1119.8 343.829L1122.54 344.522C1123.98 345.023 1125.07 345.757 1125.8 346.725C1126.54 347.693 1126.86 348.804 1126.77 350.059C1126.68 351.101 1126.33 352.008 1125.69 352.778C1125.07 353.55 1124.24 354.125 1123.18 354.505C1122.12 354.884 1120.92 355.03 1119.58 354.942Z" fill="#1F3247"/>
<path d="M551.513 371.274C552.462 350.717 539.737 336.493 523.248 325.671C506.294 314.544 486.07 310.602 464.51 312.71C474.084 319.321 486.551 324.292 493.541 335.271C490.644 334.552 489.046 334.569 488.111 333.852C478.451 326.375 467.468 321.056 455.885 316.646C454.416 316.093 452.938 315.478 451.652 314.635C448.165 312.343 447.774 309.592 450.38 306.513C451.031 305.747 451.82 305.087 452.654 304.476C460.42 298.683 468.112 292.806 472.799 284.207C475.802 292.907 468.361 300.227 462.028 305.849C471.344 306.733 482.634 305.603 491.055 307.199C515.783 311.875 535.885 323.408 548.9 343.742C552.284 349.029 552.44 351.592 553.862 357.691C554.886 362.08 553.862 372.176 551.513 371.274Z" fill="#FC6E6E"/>
<path d="M852.637 366.591C850.954 354.187 863.045 337.211 876.192 327.829C889.711 318.182 904.892 315.714 922.663 316.791C915.041 322.507 905.808 325.905 900.462 335.128C902.814 334.45 904.127 334.416 904.869 333.799C912.531 327.369 921.355 322.671 930.705 318.7C931.891 318.202 933.082 317.652 934.108 316.921C936.888 314.934 937.111 312.664 934.862 310.216C934.3 309.607 933.629 309.089 932.923 308.613C926.342 304.093 919.818 299.503 915.665 292.587C913.51 299.819 917.733 304.625 923.132 309.048C915.517 310.056 908.356 310.447 901.501 312.012C881.372 316.6 865.958 327.025 856.002 344.109C853.412 348.551 852.745 349.138 851.795 354.187C851.112 357.821 850.74 367.403 852.637 366.591Z" fill="#25ACF8"/>
<path d="M855.477 572.527C853.928 583.944 865.087 600.868 877.188 609.505C889.631 618.384 903.574 619.356 919.931 618.365C912.915 613.104 904.417 609.976 899.497 601.487C901.662 602.111 902.87 602.143 903.552 602.711C910.605 608.629 918.727 612.953 927.333 616.608C928.425 617.067 929.521 617.573 930.465 618.245C933.024 620.075 933.229 622.163 931.159 624.417C930.642 624.977 930.024 625.454 929.374 625.892C923.317 630.052 917.312 634.277 913.489 640.643C911.506 633.986 915.393 629.562 920.363 625.492C913.354 624.564 906.762 624.204 900.452 622.763C880.81 618.287 858.407 603.644 854.702 583.944C854.073 580.6 854.702 573.826 855.477 572.527Z" fill="#37DB8C"/>
<path d="M735.135 492.029C735.135 510.005 722.8 522.546 705.148 522.546C694.393 522.546 682.04 518.976 682.04 491.145V435.626H646.439V503.557C646.439 535.875 663.248 553.673 693.778 553.673C709.009 553.673 723.186 548.592 735.925 538.544L737.048 551.503H770.736V435.626H735.135V492.029Z" fill="black"/>
<path d="M818.866 435.626H783.265V551.487H818.866V435.626Z" fill="black"/>
<path d="M964.746 435.626H914.669L866.75 477.35V389.112H831.131V551.487H866.75V521.34L881.243 508.751L918.915 551.487H963.447L906.545 486.643L964.746 435.626Z" fill="black"/>
<path d="M800.934 389.112C789.669 389.112 780.528 397.489 780.528 407.811C780.528 418.133 789.669 426.51 800.934 426.51C812.199 426.51 821.34 418.133 821.34 407.811C821.34 397.489 812.216 389.112 800.934 389.112Z" fill="black"/>
<path d="M620.874 513.22L621.014 513.349L623.032 509.78C629.665 498.058 633.156 484.778 633.156 471.385C633.156 465.612 632.542 460.001 631.384 454.599C623.225 416.783 587.799 389.112 544.092 389.112C542.565 389.112 541.056 389.144 539.565 389.208C539.056 389.224 538.547 389.273 538.038 389.305C537.073 389.369 536.09 389.417 535.125 389.498C534.494 389.562 533.862 389.643 533.213 389.707C532.388 389.803 531.564 389.884 530.739 389.996C530.037 390.093 529.353 390.205 528.668 390.318C527.931 390.43 527.195 390.543 526.458 390.672C525.721 390.8 525.001 390.961 524.282 391.106C523.615 391.25 522.931 391.379 522.264 391.524C521.51 391.701 520.755 391.893 520.001 392.07C519.386 392.231 518.772 392.376 518.158 392.537C517.369 392.746 516.597 392.987 515.825 393.212C515.263 393.389 514.702 393.55 514.14 393.726C513.333 393.984 512.543 394.257 511.754 394.546C511.245 394.723 510.736 394.9 510.245 395.093C509.42 395.399 508.613 395.72 507.806 396.042C507.35 396.219 506.894 396.411 506.455 396.604C505.613 396.958 504.788 397.328 503.963 397.714C503.56 397.891 503.174 398.084 502.77 398.277C501.91 398.679 501.068 399.097 500.226 399.531C499.875 399.708 499.542 399.884 499.208 400.077C498.331 400.544 497.471 401.01 496.629 401.508C496.348 401.669 496.05 401.846 495.769 402.023C494.892 402.553 494.015 403.084 493.155 403.631C492.927 403.775 492.699 403.936 492.47 404.081C491.576 404.676 490.681 405.271 489.803 405.882C489.628 405.994 489.47 406.123 489.295 406.251C488.382 406.911 487.47 407.586 486.575 408.277C486.47 408.358 486.382 408.438 486.277 408.518C485.329 409.258 484.399 410.014 483.487 410.802C466.011 425.722 455.255 447.171 455.255 471.385C455.255 517.513 494.33 553.657 544.214 553.657H569.218L539.565 580.814L563.656 602.905L634.385 538.11L615.487 520.793C617.435 518.381 619.225 515.857 620.874 513.22ZM563.656 473.298L539.565 495.389L569.218 522.546H544.109C514.263 522.546 490.874 500.068 490.874 471.369C490.874 456.142 497.454 442.669 508.104 433.359L508.139 433.392C514.596 427.748 522.527 423.632 531.388 421.606C531.458 421.59 531.528 421.574 531.599 421.558C532.318 421.397 533.037 421.252 533.774 421.108C533.967 421.076 534.16 421.043 534.353 421.011C534.985 420.899 535.599 420.802 536.231 420.722C536.564 420.674 536.898 420.641 537.231 420.609C537.74 420.545 538.266 420.481 538.775 420.432C539.266 420.384 539.775 420.352 540.284 420.32C540.652 420.288 541.021 420.256 541.407 420.24C542.302 420.191 543.197 420.175 544.092 420.175C573.938 420.175 597.327 442.653 597.327 471.352C597.327 476.69 596.485 481.996 594.818 487.125L594.274 488.813L594.186 488.797C593.081 491.82 591.677 494.698 590.028 497.431L563.656 473.298Z" fill="black"/>
<path d="M568.366 692.064C571.643 694.877 583.356 694.56 585.324 701.551C583.646 701.394 582.56 701.462 581.616 701.178C571.216 697.913 560.792 694.662 550.458 691.224C548.773 690.663 546.501 689.389 546.134 688.07C545.468 685.635 547.959 684.744 550.218 684.045C557.216 681.913 564.186 679.691 571.222 677.493C571.706 681.557 569.388 681.202 558.275 686.424C580.659 690.943 604.198 677.184 604.411 656.556C602.19 656.644 598.789 656.889 596.575 656.913C590.068 656.969 584.199 655.366 579.214 651.316C575.546 648.335 573.708 644.702 574.998 640.272C576.333 635.711 580.279 633.849 584.991 633.067C595.182 631.372 603.645 635.819 607.376 644.824C607.837 645.939 608.48 646.982 609.242 648.426C620.926 642.928 632.01 634.58 636.609 623.525C643.71 606.479 631.222 594.285 618.655 590.777C617.057 590.197 613.325 590.102 610.653 589.387C613.994 588.151 617.62 588.345 620.545 589.069C632.071 591.881 641.39 602.435 642.167 613.437C642.657 620.475 640.801 626.992 636.706 632.928C630.672 641.65 622.845 648.586 612.611 653.056C611.61 653.499 610.626 653.993 609.322 654.623C608.535 664.134 606.398 672.089 598.876 679.458C591.501 686.654 584.283 689.906 568.366 692.064ZM604.211 650.548C602.939 640.777 594.532 635.531 585.653 637.621C583.551 638.11 581.14 639.741 580.17 641.467C578.797 643.919 580.677 646.108 582.981 647.726C588.951 651.901 596.713 652.297 604.211 650.548Z" fill="#FFB800"/>
</svg>
